<svg width="278" height="42" viewBox="0 0 278 42" fill="none" xmlns="http://www.w3.org/2000/svg">
<mask id="path-1-outside-1_3_78" maskUnits="userSpaceOnUse" x="0" y="0" width="278" height="42" fill="black">
<rect fill="white" width="278" height="42"/>
<path d="M0 0H275V28C275 34.6274 269.627 40 263 40H12C5.37259 40 0 34.6274 0 28V0Z"/>
</mask>
<path d="M0 0H275V28C275 34.6274 269.627 40 263 40H12C5.37259 40 0 34.6274 0 28V0Z" fill="#E9A566"/>
<path d="M0 0H275H0ZM278 28C278 35.4558 271.956 41.5 264.5 41.5H13.5C6.04416 41.5 0 35.4558 0 28C0 33.799 5.37258 38.5 12 38.5H263C267.971 38.5 272 33.799 272 28H278ZM0 40V0V40ZM278 0V28C278 35.4558 271.956 41.5 264.5 41.5L263 38.5C267.971 38.5 272 33.799 272 28V0H278Z" fill="#954B07" mask="url(#path-1-outside-1_3_78)"/>
</svg>
