<svg width="278" height="86" viewBox="0 0 278 86" fill="none" xmlns="http://www.w3.org/2000/svg">
<path d="M0.5 34V85.5H278V34C278 28.5 272.5 23 267 17C261.5 11 219.5 0 148.5 0C77.5 0 28.5 9.5 16 17C3.5 24.5 0.5 28.5 0.5 34Z" fill="#E9A566"/>
<ellipse cx="39.0833" cy="40.1614" rx="5.5" ry="17" transform="rotate(-34.0899 39.0833 40.1614)" fill="white"/>
<ellipse cx="107.643" cy="44.6248" rx="5.5" ry="17" transform="rotate(-117.029 107.643 44.6248)" fill="white"/>
<ellipse cx="155.734" cy="23.318" rx="6.43349" ry="18.5997" transform="rotate(-53.071 155.734 23.318)" fill="white"/>
<ellipse cx="206.734" cy="59.318" rx="6.43349" ry="18.5997" transform="rotate(-75.5955 206.734 59.318)" fill="white"/>
<ellipse cx="253.112" cy="43.1112" rx="6.43349" ry="18.5997" transform="rotate(-5.2608 253.112 43.1112)" fill="white"/>
</svg>
